<svg width="17841" height="2348" viewBox="0 0 17841 2348" fill="none" xmlns="http://www.w3.org/2000/svg">
<path fill-rule="evenodd" clip-rule="evenodd" d="M4.4385 1122.06C6.88732 447.792 11.3258 -54.9617 14.3295 4.82628L19.7819 113.531L8929.93 114.616L17840.1 115.701L8929.61 116.773L19.1315 117.845V165.204V212.562H8924.82C14849.2 212.562 17830.5 214.004 17830.5 216.867C17830.5 219.73 14849.2 221.173 8924.82 221.173H19.1315V266.378V311.584H8924.82C16828.2 311.584 17830.5 312.312 17830.5 318.042C17830.5 323.773 16828.2 324.5 8924.82 324.5H19.1315V367.554V410.607H8924.82C17817.8 410.607 17830.5 410.62 17830.5 419.217C17830.5 427.815 17817.8 427.828 8924.82 427.828H19.1315V468.728V509.629H8924.82H17830.5V520.392V531.156H8924.82H19.1315V569.903V608.651H8924.82H17830.5V621.567V634.483H8924.82H19.1315V671.078V707.674H8924.82H17830.5V722.742V737.811H8924.82H19.1315V772.253V806.696H8924.82H17830.5V823.917V841.138H8924.82H19.1315V873.428V905.718H8924.82H17830.5V925.092V944.466H8924.82H19.1315V974.603V1004.74H8924.82H17830.5V1026.27V1047.79H8924.82H19.1315V1075.78V1103.76H8924.82H17830.5V1127.44V1151.12H8924.82H19.1315V1176.95V1202.79H8924.82H17830.5V1228.62V1254.45H8924.82H19.1315V1278.13V1301.81H8924.82H17830.5V1329.79V1357.78H8924.82H19.1315V1379.3V1400.83H8924.82H17830.5V1430.97V1461.1H8924.82H19.1315V1480.48V1499.85H8924.82H17830.5V1532.14V1564.43H8924.82H19.1315V1581.65V1598.87H8924.82H17830.5V1633.32V1667.76H8924.82H19.1315V1682.83V1697.9H8924.82H17830.5V1734.49V1771.09H8924.82H19.1315V1784V1796.92H8924.82H17830.5V1835.67V1874.41H8924.82H19.1315V1885.18V1895.94H8924.82H17830.5V1936.84V1977.74H8924.82C31.892 1977.74 19.1315 1977.76 19.1315 1986.35C19.1315 1994.95 31.892 1994.96 8924.82 1994.96H17830.5V2038.02V2081.07H8924.82C1021.41 2081.07 19.1315 2081.8 19.1315 2087.53C19.1315 2093.26 1021.41 2093.99 8924.82 2093.99H17830.5V2139.19V2184.4H8924.82C3000.44 2184.4 19.1315 2185.84 19.1315 2188.7C19.1315 2191.57 3000.44 2193.01 8924.82 2193.01H17830.5V2240.36V2287.72L8920.04 2288.8L9.56573 2289.89L8920.04 2290.96L17830.5 2292.03V2320.02V2348H8915.26H0L4.4385 1122.06Z" fill="#262524"/>
</svg>
